<svg width="128" height="128" viewBox="0 0 128 128" fill="none" xmlns="http://www.w3.org/2000/svg">
<path d="M79.0588 64C79.0588 15.8118 109.176 3.76471 124.235 3.76471" stroke="#B0B2B7" stroke-width="3.76471"/>
<path d="M79.0588 64C79.0588 15.8118 28.8628 3.76471 3.76472 3.76471" stroke="#B0B2B7" stroke-width="3.76471"/>
<path d="M64 79.0588C112.188 79.0588 124.235 109.176 124.235 124.235" stroke="#B0B2B7" stroke-width="3.76471"/>
<path d="M64 79.0588C112.188 79.0588 124.235 28.8628 124.235 3.76472" stroke="#B0B2B7" stroke-width="3.76471"/>
<path d="M48.9412 64C48.9412 112.188 18.8235 124.235 3.76471 124.235" stroke="#B0B2B7" stroke-width="3.76471"/>
<path d="M48.9412 64C48.9412 112.188 99.1372 124.235 124.235 124.235" stroke="#B0B2B7" stroke-width="3.76471"/>
<path d="M64 48.9412C15.8118 48.9412 3.76471 18.8235 3.76471 3.76471" stroke="#B0B2B7" stroke-width="3.76471"/>
<path d="M64 48.9412C15.8118 48.9412 3.76471 99.1372 3.76471 124.235" stroke="#B0B2B7" stroke-width="3.76471"/>
<path d="M49 64C49 59 52 49 64 49C69 49 79 52 79 64C79 69 76 79 64 79C59 79 49 76 49 64Z" stroke="#29DCE6" stroke-width="4"/>
<path d="M3.76471 3.76471C100.141 3.76471 124.235 84.0784 124.235 124.235C27.8588 124.235 3.76471 43.9216 3.76471 3.76471ZM124.235 3.76471C124.235 100.141 43.9216 124.235 3.76471 124.235C3.76471 27.8588 84.0784 3.76471 124.235 3.76471Z" stroke="#E3E6EB" stroke-width="5.64706"/>
</svg>
