<svg width="32" height="32" viewBox="0 0 32 32" fill="none" xmlns="http://www.w3.org/2000/svg">
<g clip-path="url(#clip0_1_4)">
<rect width="32" height="32" fill="white"/>
<path d="M0 0C25.6 0 32 21.3333 32 32C6.4 32 0 10.6667 0 0ZM32 0C32 25.6 10.6667 32 0 32C0 6.4 21.3333 0 32 0Z" stroke="#E3E6EB" stroke-width="0.5"/>
<path d="M20 16C20 3.2 28 0 32 0" stroke="#E3E6EB" stroke-opacity="0.75" stroke-width="0.25"/>
<path d="M20 16C20 3.2 6.66667 0 0 0" stroke="#E3E6EB" stroke-opacity="0.75" stroke-width="0.25"/>
<path d="M16 20C28.8 20 32 28 32 32" stroke="#E3E6EB" stroke-opacity="0.75" stroke-width="0.25"/>
<path d="M16 20C28.8 20 32 6.66667 32 0" stroke="#E3E6EB" stroke-opacity="0.75" stroke-width="0.25"/>
<path d="M12 16C12 28.8 4 32 0 32" stroke="#E3E6EB" stroke-opacity="0.75" stroke-width="0.25"/>
<path d="M12 16C12 28.8 25.3333 32 32 32" stroke="#E3E6EB" stroke-opacity="0.75" stroke-width="0.25"/>
<path d="M16 12C3.2 12 0 4 0 0" stroke="#E3E6EB" stroke-opacity="0.75" stroke-width="0.25"/>
<path d="M16 12C3.2 12 0 25.3333 0 32" stroke="#E3E6EB" stroke-opacity="0.75" stroke-width="0.25"/>
</g>
<defs>
<clipPath id="clip0_1_4">
<rect width="32" height="32" fill="white"/>
</clipPath>
</defs>
</svg>
